<svg width="48" height="48" viewBox="0 0 48 48" fill="none" xmlns="http://www.w3.org/2000/svg">
  <path d="M24 0C37.2548 0 48 10.7452 48 24C48 37.2548 37.2548 48 24 48C10.7452 48 0 37.2548 0 24C0 10.7452 10.7452 0 24 0ZM23.9863 13.3594C21.9563 13.3594 20.1798 13.8154 18.6572 14.7266C17.1446 15.6288 15.9633 16.8882 15.1143 18.5049C14.2749 20.1128 13.8555 21.971 13.8555 24.0791C13.8555 26.187 14.275 28.036 15.1143 29.626C15.9633 31.207 17.169 32.4399 18.7305 33.3242C20.3018 34.1996 22.1712 34.6377 24.3379 34.6377C25.8605 34.6377 27.2321 34.4229 28.4521 33.9941C29.672 33.5564 30.6968 32.949 31.5264 32.1719C32.3559 31.3858 32.9465 30.4746 33.2979 29.4385L29.96 28.5811C29.6672 29.2957 29.2526 29.8946 28.7158 30.377C28.1791 30.8503 27.5395 31.2071 26.7979 31.4482C26.0658 31.6805 25.2456 31.7969 24.3379 31.7969C22.9422 31.7969 21.7172 31.5197 20.6631 30.9658C19.6093 30.4031 18.7847 29.5862 18.1895 28.5146C17.6585 27.5346 17.3708 26.3594 17.3213 24.9902H33.6494V23.6504C33.6494 21.7298 33.3708 20.1129 32.8145 18.7998C32.2582 17.4869 31.512 16.4327 30.5752 15.6377C29.6382 14.8337 28.598 14.2528 27.4561 13.8955C26.3142 13.5382 25.1575 13.3594 23.9863 13.3594ZM23.9863 16.2002C25.2354 16.2002 26.319 16.4634 27.2363 16.9902C28.1634 17.5172 28.8763 18.2365 29.374 19.1475C29.8816 20.0586 30.1357 21.0955 30.1357 22.2568H17.3291C17.3949 21.3021 17.6562 20.3996 18.1162 19.5498C18.653 18.5584 19.4186 17.754 20.4141 17.1377C21.4193 16.5124 22.6103 16.2002 23.9863 16.2002Z" fill="#8A8786"/>
  </svg>
  